<svg width="30" height="40" viewBox="0 0 30 40" xmlns="http://www.w3.org/2000/svg">
  <path d="M15 0C6.72 0 0 6.72 0 15c0 10.5 15 25 15 25s15-14.5 15-25C30 6.72 23.28 0 15 0z" fill="#1f3a5f"/>
  <circle cx="15" cy="15.5" r="8.5" fill="#ffffff"/>
  <g transform="translate(15,15.5)" fill="none" stroke="#1f3a5f" stroke-width="1.3" stroke-linejoin="round" stroke-linecap="round">
    <path d="M-3.5 -5h7v3.2a3.5 3.5 0 0 1-7 0v-3.2z"/>
    <path d="M-3.5 -4h-2v1.2a2.3 2.3 0 0 0 2 2.3M3.5 -4h2v1.2a2.3 2.3 0 0 1-2 2.3"/>
    <path d="M0 1.2v2.3M-2.3 6h4.6"/>
  </g>
</svg>
